<?xml version="1.0" encoding="utf-8"?>
<!-- Generator: Adobe Illustrator 24.1.2, SVG Export Plug-In . SVG Version: 6.00 Build 0)  -->
<svg version="1.1" id="Layer_1" xmlns="http://www.w3.org/2000/svg" xmlns:xlink="http://www.w3.org/1999/xlink" x="0px" y="0px"
	 viewBox="0 0 50 50" style="enable-background:new 0 0 50 50;" xml:space="preserve">
<style type="text/css">
	.st0{fill:#FFFFFF;}
</style>
<path class="st0" d="M33.4,50H16.7C7.5,50,0,42.5,0,33.3V16.7C0,7.5,7.5,0,16.7,0h16.7C42.5,0,50,7.5,50,16.7v16.7
	C50,42.5,42.5,50,33.4,50z"/>
<g>
	<g>
		<g>
			<defs>
				<path id="SVGID_1_" d="M33.4,50H16.7C7.5,50,0,42.5,0,33.3V16.7C0,7.5,7.5,0,16.7,0h16.7C42.5,0,50,7.5,50,16.7v16.7
					C50,42.5,42.5,50,33.4,50z"/>
			</defs>
			<clipPath id="SVGID_2_">
				<use xlink:href="#SVGID_1_"  style="overflow:visible;"/>
			</clipPath>
		</g>
	</g>
</g>
<g transform="translate(0.000000,1080.000000) scale(0.100000,-0.100000)">
	<path d="M106.1,10450.1v-78.2h13h13v39.2v39.2h26.2h26.2v-13v-13h13h13v13v13h6.5h6.5v13v13h13h13v13v13h-13h-13v13v13h-58.7h-58.7
		C106.1,10528.3,106.1,10450.1,106.1,10450.1z M223.5,10489.3v-13h-45.7h-45.7v13v13h45.7h45.7V10489.3z"/>
	<path d="M276,10450.1v-78.2h52.2h52.2v13v13h13h13v19.5v19.5h-13h-13v-19.5v-19.5h-39.2H302v19.7v19.7h39.2h39.2v13v13h13h13v19.5
		v19.5h-13h-13v13v13h-52.2H276V10450.1z M380.5,10482.8v-19.5h-39.2H302v19.5v19.5h39.2h39.2L380.5,10482.8L380.5,10482.8z"/>
	<path d="M210.5,10410.9v-13h13h13v-13v-13h13h13v13v13h-13h-13v13v13h-13h-13V10410.9z"/>
</g>
</svg>
