<?xml version="1.0" standalone="no"?>
<!DOCTYPE svg PUBLIC "-//W3C//DTD SVG 20010904//EN"
 "http://www.w3.org/TR/2001/REC-SVG-20010904/DTD/svg10.dtd">
<svg version="1.0" xmlns="http://www.w3.org/2000/svg"
 width="1080.000000pt" height="1080.000000pt" viewBox="0 0 1080.000000 1080.000000"
 preserveAspectRatio="xMidYMid meet">

<g transform="translate(0.000000,1080.000000) scale(0.100000,-0.100000)"
fill="#000000" stroke="none">
<path d="M2170 3695 l0 -1685 280 0 280 0 0 845 0 845 565 0 565 0 0 -280 0
-280 280 0 280 0 0 280 0 280 140 0 140 0 0 280 0 280 280 0 280 0 0 280 0
280 -280 0 -280 0 0 280 0 280 -1265 0 -1265 0 0 -1685z m2530 845 l0 -280
-985 0 -985 0 0 280 0 280 985 0 985 0 0 -280z"/>
<path d="M5830 3695 l0 -1685 1125 0 1125 0 0 280 0 280 280 0 280 0 0 420 0
420 -280 0 -280 0 0 -420 0 -420 -845 0 -845 0 0 425 0 425 845 0 845 0 0 280
0 280 280 0 280 0 0 420 0 420 -280 0 -280 0 0 280 0 280 -1125 0 -1125 0 0
-1685z m2250 705 l0 -420 -845 0 -845 0 0 420 0 420 845 0 845 0 0 -420z"/>
<path d="M4420 2850 l0 -280 280 0 280 0 0 -280 0 -280 280 0 280 0 0 280 0
280 -280 0 -280 0 0 280 0 280 -280 0 -280 0 0 -280z"/>
</g>
</svg>
